<svg id="Layer_1" data-name="Layer 1" xmlns="http://www.w3.org/2000/svg" viewBox="0 0 367.82 155.91"><defs><style>.cls-1{fill:#1982bf;}.cls-2{fill:#01578c;}.cls-3{fill:#2c2c2c;}.cls-4{fill:#1d1d1b;}</style></defs><title>karlidag-logo</title><path class="cls-1" d="M308.37,113.79A66.35,66.35,0,0,0,328,66.23C328,32,302.89,3.9,271.13,1.66c3.39-.84,22.1-4.91,39.43,4,10,5.15,20.65,13.16,26.78,31.64C353.47,86,318.87,108.29,308.37,113.79Z" transform="translate(0 0)"/><path class="cls-2" d="M313.57,150.54a80.78,80.78,0,0,0,45.19-38l.05-.09a90.07,90.07,0,0,0,5-11.6l0-.08,0-.09c7.74-22.56,6.17-50.59-23.49-79.1.54.87,26.68,41.15-3.05,80.33C311.7,135.69,256.66,127,256.58,127c-6.76-1-34.95-6.33-86.09-32.89-59.29-30.77-78.4-10.67-78.4-10.67s17.68-2.5,43.65,9.28c22.53,10.19,48.74,30.09,64.63,38.91a247.36,247.36,0,0,0,40.87,18.49S277.07,162.85,313.57,150.54Z" transform="translate(0 0)"/><path class="cls-1" d="M222.62,153.89s-19.94-9.72-80.41-48.18c-49.47-31.46-116.88-1.16-116.88-1.16s46.65-7.77,93,11.66S194.76,158.42,222.62,153.89Z" transform="translate(0 0)"/><path class="cls-3" d="M306.45,32.54s6.7,47.3-21.81,63.5-55,8.72-87.41.31c0,0,49.54,33.84,91.17,15.92C330.64,94.09,319.63,45.5,306.45,32.54Z" transform="translate(0 0)"/><polygon class="cls-2" points="39.9 50.01 41.4 51.46 27.92 51.46 14.86 38.37 11 38.37 11 28.89 14.86 28.89 27.92 15.77 41.4 15.77 23.05 33.63 39.9 50.01"/><rect class="cls-2" y="15.77" width="9.43" height="35.69"/><path class="cls-2" d="M78.94,18.67a5,5,0,0,0-1-1.53,5.24,5.24,0,0,0-1.52-1,5.06,5.06,0,0,0-1.84-.36H61.45a18.58,18.58,0,0,0-7.05,1.32,16.91,16.91,0,0,0-5.67,3.71A16.68,16.68,0,0,0,45,26.47a18.48,18.48,0,0,0-1.35,7.16V51.46h9.43V43.58H69.87v7.88h9.44V20.51A4.87,4.87,0,0,0,78.94,18.67ZM60.49,25.28c.49-.05.83-.08,1-.08h8.42v9H53.05v-.52a9.14,9.14,0,0,1,.57-3.48A7.32,7.32,0,0,1,55,27.85a6.66,6.66,0,0,1,1.79-1.4,9.84,9.84,0,0,1,2-.83A10.65,10.65,0,0,1,60.49,25.28Z" transform="translate(0 0)"/><path class="cls-2" d="M111.37,40.31a10.42,10.42,0,0,0,1.34-.54,12.9,12.9,0,0,0,2.67-1.61,11.23,11.23,0,0,0,3.87-5.7,13.44,13.44,0,0,0,.59-4.1V24.67a9.39,9.39,0,0,0-.46-2.83,8.91,8.91,0,0,0-1.5-2.9,9.11,9.11,0,0,0-2.78-2.26,8.82,8.82,0,0,0-4.12-.91H88.92a4.71,4.71,0,0,0-1.86.37,4.48,4.48,0,0,0-1.53,1,5,5,0,0,0-1,1.5,4.51,4.51,0,0,0-.36,1.84V51.45h9.43V25.21l16.78,0v3.13a4.16,4.16,0,0,1-.21,1.35,2.82,2.82,0,0,1-.6.86,2.42,2.42,0,0,1-1,.64,5.56,5.56,0,0,1-1.33.32H95.19V41h2.45l12.09,10.46h14.55Z" transform="translate(0 0)"/><path class="cls-2" d="M156.85,42v9.44H128.52a5,5,0,0,1-1.86-.36,4.76,4.76,0,0,1-2.52-2.52,5,5,0,0,1-.36-1.86V15.77h9.43V42Z" transform="translate(0 0)"/><rect class="cls-2" x="159.26" y="15.77" width="9.46" height="35.69"/><path class="cls-2" d="M208.09,25a14.6,14.6,0,0,0-8-8,16,16,0,0,0-6-1.14H178.31a4.9,4.9,0,0,0-1.84.36,4.61,4.61,0,0,0-1.53,1,4.46,4.46,0,0,0-1,1.5,5.06,5.06,0,0,0-.36,1.84V46.72a5,5,0,0,0,.36,1.86,5.14,5.14,0,0,0,1,1.5,4.61,4.61,0,0,0,1.53,1,4.9,4.9,0,0,0,1.84.36H194a16,16,0,0,0,6-1.14,14.19,14.19,0,0,0,4.82-3.19,14.36,14.36,0,0,0,3.22-4.82,16,16,0,0,0,1.16-6.06V31A15.44,15.44,0,0,0,208.09,25ZM194,42H183V25.2h11a6.45,6.45,0,0,1,2.43.45,4.7,4.7,0,0,1,1.79,1.14,5.1,5.1,0,0,1,1.14,1.76,6.58,6.58,0,0,1,.41,2.46v5.24a6.39,6.39,0,0,1-.41,2.43,4.83,4.83,0,0,1-1.14,1.76,5.15,5.15,0,0,1-1.79,1.17A7.11,7.11,0,0,1,194,42Z" transform="translate(0 0)"/><path class="cls-2" d="M247.77,18.67a4.85,4.85,0,0,0-1-1.53,5.29,5.29,0,0,0-1.53-1,4.94,4.94,0,0,0-1.84-.36H230.3a18.63,18.63,0,0,0-7.08,1.32,17.21,17.21,0,0,0-5.67,3.71,16.68,16.68,0,0,0-3.76,5.67,19.05,19.05,0,0,0-1.35,7.16V51.46h9.46V43.58h16.8v7.88h9.43V20.51A5.06,5.06,0,0,0,247.77,18.67Zm-18.43,6.61c.47-.05.8-.08,1-.08h8.4v9H221.9v-.52a9.37,9.37,0,0,1,.55-3.48,7.31,7.31,0,0,1,1.37-2.3,7.06,7.06,0,0,1,1.81-1.4,9.56,9.56,0,0,1,2-.83A10.4,10.4,0,0,1,229.34,25.28Z" transform="translate(0 0)"/><path class="cls-2" d="M288.25,33.63V46.72a4.75,4.75,0,0,1-.37,1.86,4.68,4.68,0,0,1-1,1.51,4.91,4.91,0,0,1-1.53,1,5.14,5.14,0,0,1-1.87.35h-21a10.72,10.72,0,0,1-2.1-.22,11.49,11.49,0,0,1-2.2-.71,10.83,10.83,0,0,1-2.1-1.26,8.85,8.85,0,0,1-1.84-1.92A10,10,0,0,1,253,44.72a10.88,10.88,0,0,1-.46-3.24V25.75a10,10,0,0,1,.24-2.1,9.29,9.29,0,0,1,.72-2.2,9.22,9.22,0,0,1,3.21-3.95,9.05,9.05,0,0,1,2.57-1.26,10.75,10.75,0,0,1,3.24-.47H288v9.44H262.54a1.21,1.21,0,0,0-.47.07,2.09,2.09,0,0,0,0,.52V41.48a1.3,1.3,0,0,0,.06.47.79.79,0,0,0,.45.08h16.27V38.37h-15.2V28.89H283.5a4.58,4.58,0,0,1,1.9.39,4.39,4.39,0,0,1,1.5,1,4.78,4.78,0,0,1,1,1.51A4.51,4.51,0,0,1,288.25,33.63Z" transform="translate(0 0)"/><path class="cls-4" d="M12.21,59.35a3.18,3.18,0,0,1,.93,2.25,3.21,3.21,0,0,1-1.86,2.91,2.92,2.92,0,0,1-.92.25h-.1v0H4.59v5.45H2.47V58.38H9.94a3.2,3.2,0,0,1,2.25.93ZM10.4,62.58a1.09,1.09,0,0,0,.64-1,1.16,1.16,0,0,0-.32-.78,1.06,1.06,0,0,0-.77-.31H4.59V62.7H10a1.14,1.14,0,0,0,.45-.1Z" transform="translate(0 0)"/><path class="cls-4" d="M26.75,64.31a5.93,5.93,0,1,1-5.93-5.93A5.93,5.93,0,0,1,26.75,64.31Zm-2.12,0a3.81,3.81,0,1,0-3.81,3.8A3.82,3.82,0,0,0,24.63,64.31Z" transform="translate(0 0)"/><path class="cls-4" d="M40.69,64.31a5.93,5.93,0,1,1-5.92-5.93A5.93,5.93,0,0,1,40.69,64.31Zm-2.11,0a3.81,3.81,0,1,0-3.81,3.8A3.82,3.82,0,0,0,38.58,64.31Z" transform="translate(0 0)"/><path class="cls-4" d="M53,68.13v2.12H47a3.74,3.74,0,0,1-3.36-2.12,3.59,3.59,0,0,1-.39-1.66V58.4h2.11v8.28a1.69,1.69,0,0,0,1.44,1.43Z" transform="translate(0 0)"/><path class="cls-4" d="M64.56,65.69V63.58h8v2.11Z" transform="translate(0 0)"/><path class="cls-4" d="M96,58.38V70.23H93.9V64.8H86.29v5.43H84.17V58.38h2.12v4.3H93.9v-4.3Z" transform="translate(0 0)"/><path class="cls-4" d="M110.39,70.23H108l-1.08-2.12L104.35,63l-2.59,5.07-1.09,2.12H98.3l1.09-2.12,5-9.73,5,9.73Z" transform="translate(0 0)"/><path class="cls-4" d="M124.51,58.4V70.25l-2.12-1.63-7.61-5.87v7.5h-2.12V58.43l2.12,1.63,7.61,5.87V58.38Z" transform="translate(0 0)"/><path class="cls-4" d="M133.36,58.4a5.9,5.9,0,0,1,4.52,9.73c-.1.12-.22.24-.34.36a5.8,5.8,0,0,1-4.16,1.74h-5.93V58.38Zm-3.81,9.73h3.81a3.81,3.81,0,1,0,0-7.62h-3.81Z" transform="translate(0 0)"/><path class="cls-4" d="M144.37,61.58v1.1H152V64.8h-7.62V67a1.09,1.09,0,0,0,1.08,1.08h8.65v2.12h-8.65a3.19,3.19,0,0,1-3.18-3.2V61.58a3.19,3.19,0,0,1,3.18-3.2h8.65V60.5h-8.65A1.09,1.09,0,0,0,144.37,61.58Z" transform="translate(0 0)"/><path class="cls-4" d="M166.81,68.13v2.12h-6a3.74,3.74,0,0,1-3.36-2.12,3.59,3.59,0,0,1-.39-1.66V58.4h2.11v8.28a1.69,1.69,0,0,0,1.44,1.43Z" transform="translate(0 0)"/><path class="cls-4" d="M178.39,65.69V63.58h8v2.11Z" transform="translate(0 0)"/><path class="cls-4" d="M207.09,61.66V61.6A1.09,1.09,0,0,0,206,60.51H201.2a1.09,1.09,0,0,0-1.08,1.09v.06a1.09,1.09,0,0,0,1.08,1.09h4.27A3.71,3.71,0,0,1,208.23,64l.13.15a3.74,3.74,0,0,1-2.89,6.11h-3.71A3.73,3.73,0,0,1,198,66.49h2.11a1.62,1.62,0,0,0,1.63,1.62h3.71a1.63,1.63,0,1,0,0-3.25H201.2A3.17,3.17,0,0,1,199,64a2.81,2.81,0,0,1-.4-.51,3.13,3.13,0,0,1-.56-1.81v-.07a3.19,3.19,0,0,1,3.18-3.2H206a3.21,3.21,0,0,1,3.2,3.2v.07Z" transform="translate(0 0)"/><path class="cls-4" d="M214.27,61.58v1.1h7.62V64.8h-7.62V67a1.09,1.09,0,0,0,1.08,1.08H224v2.12h-8.65a3.19,3.19,0,0,1-3.18-3.2V61.58a3.19,3.19,0,0,1,3.18-3.2H224V60.5h-8.65A1.09,1.09,0,0,0,214.27,61.58Z" transform="translate(0 0)"/><path class="cls-4" d="M236.51,68.13l1.09,2.12h-2.37l-1.09-2.12L233,65.91l0-.1a2.11,2.11,0,0,0-1.8-1h-2.11v5.45h-2.12V58.4h7.48a3.14,3.14,0,0,1,2.25.93,3.2,3.2,0,0,1-.93,5.18,2.79,2.79,0,0,1-.91.25Zm-2.1-5.45a1,1,0,0,0,.44-.1,1.08,1.08,0,0,0,.65-1,1.12,1.12,0,0,0-.33-.78,1,1,0,0,0-.76-.31h-5.36V62.7Z" transform="translate(0 0)"/><path class="cls-4" d="M252,58.38l-1.09,2.12-5,9.73-5-9.73-1.08-2.12h2.37l1.08,2.12,2.59,5.08,2.59-5.08,1.09-2.12Z" transform="translate(0 0)"/><path class="cls-4" d="M254.25,70.23V58.38h2.12V70.23Z" transform="translate(0 0)"/><path class="cls-4" d="M261.25,64.31a3.81,3.81,0,0,0,3.81,3.8H271v2.12h-5.92a5.93,5.93,0,1,1,0-11.85H271V60.5h-5.92A3.82,3.82,0,0,0,261.25,64.31Z" transform="translate(0 0)"/><path class="cls-4" d="M276,61.58v1.1h7.62V64.8H276V67a1.09,1.09,0,0,0,1.09,1.08h8.65v2.12h-8.65a3.19,3.19,0,0,1-3.19-3.2V61.58a3.19,3.19,0,0,1,3.19-3.2h8.65V60.5h-8.65A1.09,1.09,0,0,0,276,61.58Z" transform="translate(0 0)"/></svg>